<svg xmlns="http://www.w3.org/2000/svg" xmlns:xlink="http://www.w3.org/1999/xlink" width="500" height="500" viewBox="0 0 500 500">
  <defs>
    <clipPath id="clip-path">
      <rect id="Rectangle_3654" data-name="Rectangle 3654" width="291.835" height="292.604" fill="none"/>
    </clipPath>
    <clipPath id="clip-path-2">
      <path id="Path_10246" data-name="Path 10246" d="M0-682.665H36.474v36.474H0Z" transform="translate(0 682.665)" fill="#29abe2"/>
    </clipPath>
    <clipPath id="clip-path-3">
      <path id="Path_10284" data-name="Path 10284" d="M0-682.665H31.448v31.448H0Z" transform="translate(0 682.665)" fill="#29abe2"/>
    </clipPath>
  </defs>
  <g id="خطوات_تصميم_واجهة_وتجربة_المستخدم_-_كاملة" data-name="خطوات تصميم واجهة وتجربة المستخدم - كاملة" transform="translate(-234.559 -3500.559)">
    <path id="Path_10297" data-name="Path 10297" d="M250,0C388.071,0,500,111.929,500,250S388.071,500,250,500,0,388.071,0,250,111.929,0,250,0Z" transform="translate(234.559 3500.559)" fill="#fff"/>
    <g id="Group_5521" data-name="Group 5521" transform="translate(257.964 3552.202)">
      <text id="تصميم_تجـربة_المستخدم" data-name="تصميم تجـربة المستخدم" transform="translate(288.22 278.879)" fill="#0071bc" font-size="12" font-family="DroidArabicKufi-Bold, Droid Arabic Kufi" font-weight="700"><tspan x="-136.008" y="0">تصميم تجـربة المستخدم</tspan></text>
      <text id="تصميم_واجهة_المستخدم" data-name="تصميم واجهة المستخدم" transform="translate(290.396 128.649)" fill="#0071bc" font-size="12" font-family="DroidArabicKufi-Bold, Droid Arabic Kufi" font-weight="700"><tspan x="-142.096" y="0">تصميم واجهة المستخدم</tspan></text>
      <text id="الرسم_المبدئي_والتصميم_البدائي" data-name="الرسم المبدئي والتصميم البدائي" transform="translate(218.878 10)" fill="#3c414b" font-size="10" font-family="DroidArabicKufi-Bold, Droid Arabic Kufi" font-weight="700"><tspan x="-78.748" y="0">الرسم المبدئي والتصميم البدائي</tspan></text>
      <text id="نموذج_ديناميكى_" data-name="نموذج ديناميكى " transform="translate(390.466 85.115)" fill="#3c414b" font-size="10" font-family="DroidArabicKufi-Bold, Droid Arabic Kufi" font-weight="700"><tspan x="-40.625" y="0">نموذج ديناميكى</tspan><tspan y="0"> </tspan></text>
      <text id="التعـــــــديل" transform="translate(419.425 166.442)" fill="#3c414b" font-size="10" font-family="DroidArabicKufi-Bold, Droid Arabic Kufi" font-weight="700"><tspan x="-24.109" y="0">التعـــــــديل</tspan></text>
      <text id="مراجعة_التصميم" data-name="مراجعة التصميم" transform="translate(425.016 251.723)" fill="#3c414b" font-size="10" font-family="DroidArabicKufi-Bold, Droid Arabic Kufi" font-weight="700"><tspan x="-37.861" y="0">مراجعة التصميم</tspan></text>
      <text id="ارشادات_واجهة_المستخدم" data-name="ارشادات 
واجهة المستخدم" transform="translate(383.016 317.802)" fill="#3c414b" font-size="10" font-family="DroidArabicKufi-Bold, Droid Arabic Kufi" font-weight="700"><tspan x="-21.558" y="0">ارشادات</tspan><tspan y="0"> </tspan><tspan x="-41.765" y="15">واجهة المستخدم</tspan></text>
      <text id="تصميم_مبدئي_متحرك" data-name="تصميم مبدئي متحرك" transform="translate(222.422 381.621)" fill="#3c414b" font-size="10" font-family="DroidArabicKufi-Bold, Droid Arabic Kufi" font-weight="700"><tspan x="-49.507" y="0">تصميم مبدئي متحرك</tspan></text>
      <text id="تصميم_جرافيكى" data-name="تصميم جرافيكى" transform="translate(60.285 328.533)" fill="#3c414b" font-size="10" font-family="DroidArabicKufi-Bold, Droid Arabic Kufi" font-weight="700"><tspan x="-38.411" y="0">تصميم جرافيكى</tspan></text>
      <text id="اختيار_التصميم" data-name="اختيار التصميم" transform="translate(22.285 251.723)" fill="#3c414b" font-size="10" font-family="DroidArabicKufi-Bold, Droid Arabic Kufi" font-weight="700"><tspan x="-34.517" y="0">اختيار التصميم</tspan></text>
      <text id="التحلـــيل" transform="translate(40.285 166.442)" fill="#3c414b" font-size="10" font-family="DroidArabicKufi-Bold, Droid Arabic Kufi" font-weight="700"><tspan x="-19.607" y="0">التحلـــيل</tspan></text>
      <text id="هندسة_واجهة_التطبيق_او_الموقع" data-name="هندسة واجهة 
التطبيق او الموقع" transform="translate(101.785 76.643)" fill="#3c414b" font-size="10" font-family="DroidArabicKufi-Bold, Droid Arabic Kufi" font-weight="700"><tspan x="-74.521" y="0">هندسة واجهة</tspan><tspan y="0"> </tspan><tspan x="-88.706" y="15">التطبيق او الموقع</tspan></text>
      <g id="Group_5506" data-name="Group 5506" transform="translate(81.09 52.982)" clip-path="url(#clip-path)">
        <path id="Path_10218" data-name="Path 10218" d="M290.935,146.1a145.6,145.6,0,0,1-145.6,145.6C-47.8,284.034-47.75,8.14,145.335.5A145.6,145.6,0,0,1,290.935,146.1Z" transform="translate(0.2 0.2)" fill="none" stroke="#51c8ed" stroke-linecap="round" stroke-miterlimit="10" stroke-width="1" stroke-dasharray="5.027 5.027"/>
      </g>
      <g id="Group_7254" data-name="Group 7254" transform="translate(58.737 28.803)">
        <line id="Line_199" data-name="Line 199" x2="320.792" transform="translate(8.189 170.844)" fill="none" stroke="#29abe2" stroke-width="1" opacity="0.24"/>
        <g id="Group_5511" data-name="Group 5511" transform="translate(236.64 31.063)">
          <circle id="Ellipse_150" data-name="Ellipse 150" cx="24.285" cy="24.285" r="24.285" transform="translate(0 0)" fill="#fff"/>
          <g id="Prototype" transform="translate(7.907 10.731)">
            <path id="Path_10219" data-name="Path 10219" d="M35.967,15.277h-12.4a1.62,1.62,0,0,0-1.618,1.617v17.85H20.2V16.894a1.62,1.62,0,0,0-1.618-1.618H6.175a1.62,1.62,0,0,0-1.618,1.618V40.73a1.62,1.62,0,0,0,1.618,1.618h12.4A1.62,1.62,0,0,0,20.2,40.73V35.717h1.75V40.73a1.62,1.62,0,0,0,1.618,1.618h12.4a1.62,1.62,0,0,0,1.618-1.618V16.894A1.62,1.62,0,0,0,35.967,15.277ZM15.1,16.249l-.356,1.238a.421.421,0,0,1-.4.3H10.413a.421.421,0,0,1-.4-.3l-.356-1.238Zm3.48,25.126H6.175a.646.646,0,0,1-.645-.645v-.9H19.224v.9a.646.646,0,0,1-.645.645Zm.645-2.513H5.529V16.894a.646.646,0,0,1,.645-.646H8.643l.433,1.507a1.4,1.4,0,0,0,1.337,1.007H14.34a1.4,1.4,0,0,0,1.337-1.007l.433-1.507h2.468a.646.646,0,0,1,.645.646v17.85H14.369a2.053,2.053,0,1,0,0,.972h4.854ZM13.459,35.23a1.081,1.081,0,1,1-1.083-1.08,1.081,1.081,0,0,1,1.083,1.08Zm19.03-18.982-.356,1.238a.42.42,0,0,1-.4.3H27.8a.421.421,0,0,1-.4-.3l-.355-1.237ZM28.638,37.141a.486.486,0,0,0,.688,0l1.567-1.567a.486.486,0,0,0,0-.688L29.326,33.32a.486.486,0,1,0-.688.688l.737.737H22.918V16.894a.646.646,0,0,1,.645-.646h2.468l.433,1.507A1.4,1.4,0,0,0,27.8,18.762h3.928a1.4,1.4,0,0,0,1.337-1.007l.433-1.507h2.468a.646.646,0,0,1,.645.646V38.861H22.918V35.717h6.457l-.737.737A.486.486,0,0,0,28.638,37.141Zm7.329,4.234h-12.4a.646.646,0,0,1-.645-.646v-.9H36.613v.9a.646.646,0,0,1-.645.645Z" transform="translate(-4.557 -15.276)" fill="#29abe2"/>
            <path id="Path_10220" data-name="Path 10220" d="M14.224,38.019H23.79a.486.486,0,0,0,.486-.486v-3.54a.486.486,0,0,0-.486-.486H14.224a.486.486,0,0,0-.486.486v3.54A.486.486,0,0,0,14.224,38.019Zm.486-3.54H23.3v2.568H14.71Zm26.954,9.269V33.993a.486.486,0,0,0-.486-.486H31.613a.486.486,0,0,0-.486.486v9.755a.486.486,0,0,0,.486.486h9.565A.486.486,0,0,0,41.665,43.748Zm-.972-.486H32.1V34.479h8.593Zm-16.417.486a.486.486,0,0,0-.486-.486H14.224a.486.486,0,0,0,0,.972H23.79a.486.486,0,0,0,.486-.486ZM14.224,41.127H23.79a.486.486,0,0,0,0-.972H14.224a.486.486,0,0,0,0,.972Z" transform="translate(-11.187 -28.442)" fill="#29abe2"/>
          </g>
        </g>
        <g id="Group_5510" data-name="Group 5510" transform="translate(146.841)">
          <g id="Group_5520" data-name="Group 5520">
            <circle id="Ellipse_159" data-name="Ellipse 159" cx="24.285" cy="24.285" r="24.285" fill="#fff"/>
            <g id="edit" transform="translate(7.907 7.907)">
              <path id="Path_10221" data-name="Path 10221" d="M38.422,64H9.82A1.822,1.822,0,0,0,8,65.82V85.582A1.822,1.822,0,0,0,9.82,87.4h9.971L19.049,90H16.841a.52.52,0,0,0-.52.52v1.56a.52.52,0,0,0,.52.52H31.4a.52.52,0,0,0,.52-.52v-1.56A.52.52,0,0,0,31.4,90H29.194l-.742-2.6h9.971a1.822,1.822,0,0,0,1.82-1.82V65.82A1.822,1.822,0,0,0,38.422,64ZM30.882,91.042v.52H17.361v-.52ZM20.131,90l.742-2.6h6.5l.742,2.6ZM39.2,85.582a.781.781,0,0,1-.78.78H9.82a.781.781,0,0,1-.78-.78v-1.3H39.2Zm0-2.34H9.04V65.82a.781.781,0,0,1,.78-.78h28.6a.781.781,0,0,1,.78.78Z" transform="translate(-8 -60.36)" fill="#29abe2"/>
              <path id="Path_10222" data-name="Path 10222" d="M40.52,115.12H42.6a.52.52,0,0,0,.52-.52v-2.08a.52.52,0,0,0-.52-.52H40.52a.52.52,0,0,0-.52.52v2.08A.52.52,0,0,0,40.52,115.12Zm.52-2.08h1.04v1.04H41.04Zm-.52,5.72H42.6a.52.52,0,0,0,.52-.52v-2.08a.52.52,0,0,0-.52-.52H40.52a.52.52,0,0,0-.52.52v2.08A.52.52,0,0,0,40.52,118.761Zm.52-2.08h1.04v1.04H41.04Zm-.52,5.72H42.6a.52.52,0,0,0,.52-.52V119.8a.52.52,0,0,0-.52-.52H40.52a.52.52,0,0,0-.52.52v2.08A.52.52,0,0,0,40.52,122.4Zm.52-2.08h1.04v1.04H41.04Zm-.52,5.72H42.6a.52.52,0,0,0,.52-.52v-2.08a.52.52,0,0,0-.52-.52H40.52a.52.52,0,0,0-.52.52v2.08A.52.52,0,0,0,40.52,126.041Zm.52-2.08h1.04V125H41.04Zm24.442-8.841h2.08a.52.52,0,0,0,.52-.52v-2.08a.52.52,0,0,0-.52-.52h-2.08a.52.52,0,0,0-.52.52v2.08A.52.52,0,0,0,65.482,115.12Zm.52-2.08h1.04v1.04H66Zm-.52,5.72h2.08a.52.52,0,0,0,.52-.52v-2.08a.52.52,0,0,0-.52-.52h-2.08a.52.52,0,0,0-.52.52v2.08A.52.52,0,0,0,65.482,118.761Zm.52-2.08h1.04v1.04H66Zm-.52,5.72h2.08a.52.52,0,0,0,.52-.52V119.8a.52.52,0,0,0-.52-.52h-2.08a.52.52,0,0,0-.52.52v2.08A.52.52,0,0,0,65.482,122.4Zm.52-2.08h1.04v1.04H66Zm-.52,5.72h2.08a.52.52,0,0,0,.52-.52v-2.08a.52.52,0,0,0-.52-.52h-2.08a.52.52,0,0,0-.52.52v2.08A.52.52,0,0,0,65.482,126.041Zm.52-2.08h1.04V125H66ZM48.325,122.27l-.989,1.978A.52.52,0,0,0,47.8,125H53a.52.52,0,0,0,.465-.753l-1.418-2.836a4.157,4.157,0,1,0-3.724.858Zm3.835,1.691H48.642l.781-1.562a4.135,4.135,0,0,0,1.749-.414ZM49.972,121.3l.428-.857.306.612A3.1,3.1,0,0,1,49.972,121.3Zm-.612-6.18a3.119,3.119,0,0,1,2.2,5.326l-.7-1.4a.52.52,0,0,0-.93,0L48.8,121.31a3.12,3.12,0,0,1,.556-6.19Z" transform="translate(-37.92 -105.239)" fill="#29abe2"/>
              <path id="Path_10223" data-name="Path 10223" d="M136.2,25.175l5.988,1.758a.519.519,0,0,0,.645-.352l1.758-5.988a.52.52,0,0,0-.352-.645l-5.988-1.758a.52.52,0,0,0-.645.352l-1.758,5.988a.52.52,0,0,0,.352.645Zm2.257-5.841,4.99,1.465-1.465,4.99-4.99-1.465Zm-10.171-9.308,2.08,1.04a.52.52,0,0,0,.233.055h12.481a1.56,1.56,0,1,0,0-3.12H130.6a.52.52,0,0,0-.233.055l-2.08,1.04a.52.52,0,0,0,0,.93ZM143.6,9.56a.521.521,0,0,1-.52.52H132.161V9.04h10.921A.521.521,0,0,1,143.6,9.56Zm-12.878-.52h.4v1.04h-.4l-1.04-.52Z" transform="translate(-120.2 -8)" fill="#29abe2"/>
            </g>
          </g>
        </g>
        <g id="Group_5512" data-name="Group 5512" transform="translate(285.211 112.39)">
          <circle id="Ellipse_151" data-name="Ellipse 151" cx="24.285" cy="24.285" r="24.285" fill="#fff"/>
          <g id="sketch_wirefram" data-name="sketch wirefram" transform="translate(6.213 6.213)">
            <g id="Group_5508" data-name="Group 5508" transform="translate(0 0)" clip-path="url(#clip-path-2)">
              <path id="Path_10224" data-name="Path 10224" d="M-68.611-60.713h-2.1a2.3,2.3,0,0,1-2.3-2.3,2.3,2.3,0,0,1,2.3-2.3h2.1a2.3,2.3,0,0,1,2.3,2.3A2.3,2.3,0,0,1-68.611-60.713Zm-2.1-3.383A1.083,1.083,0,0,0-71.8-63.014a1.083,1.083,0,0,0,1.082,1.082h2.1a1.083,1.083,0,0,0,1.082-1.082A1.083,1.083,0,0,0-68.611-64.1Z" transform="translate(73.117 69.182)" fill="#29abe2"/>
              <path id="Path_10225" data-name="Path 10225" d="M-68.611-60.713h-2.1a2.3,2.3,0,0,1-2.3-2.3,2.3,2.3,0,0,1,2.3-2.3h2.1a2.3,2.3,0,0,1,2.3,2.3A2.3,2.3,0,0,1-68.611-60.713Zm-2.1-3.383A1.083,1.083,0,0,0-71.8-63.014a1.083,1.083,0,0,0,1.082,1.082h2.1a1.083,1.083,0,0,0,1.082-1.082A1.083,1.083,0,0,0-68.611-64.1Z" transform="translate(73.117 75.216)" fill="#29abe2"/>
              <path id="Path_10226" data-name="Path 10226" d="M-68.611-60.713h-2.1a2.3,2.3,0,0,1-2.3-2.3,2.3,2.3,0,0,1,2.3-2.3h2.1a2.3,2.3,0,0,1,2.3,2.3A2.3,2.3,0,0,1-68.611-60.713Zm-2.1-3.383A1.083,1.083,0,0,0-71.8-63.014a1.083,1.083,0,0,0,1.082,1.082h2.1a1.083,1.083,0,0,0,1.082-1.082A1.083,1.083,0,0,0-68.611-64.1Z" transform="translate(73.117 81.251)" fill="#29abe2"/>
              <path id="Path_10227" data-name="Path 10227" d="M-68.611-60.713h-2.1a2.3,2.3,0,0,1-2.3-2.3,2.3,2.3,0,0,1,2.3-2.3h2.1a2.3,2.3,0,0,1,2.3,2.3A2.3,2.3,0,0,1-68.611-60.713Zm-2.1-3.383A1.083,1.083,0,0,0-71.8-63.014a1.083,1.083,0,0,0,1.082,1.082h2.1a1.083,1.083,0,0,0,1.082-1.082A1.083,1.083,0,0,0-68.611-64.1Z" transform="translate(73.117 87.285)" fill="#29abe2"/>
              <path id="Path_10228" data-name="Path 10228" d="M-68.611-60.713h-2.1a2.3,2.3,0,0,1-2.3-2.3,2.3,2.3,0,0,1,2.3-2.3h2.1a2.3,2.3,0,0,1,2.3,2.3A2.3,2.3,0,0,1-68.611-60.713Zm-2.1-3.383A1.083,1.083,0,0,0-71.8-63.014a1.083,1.083,0,0,0,1.082,1.082h2.1a1.083,1.083,0,0,0,1.082-1.082A1.083,1.083,0,0,0-68.611-64.1Z" transform="translate(73.117 93.319)" fill="#29abe2"/>
              <path id="Path_10229" data-name="Path 10229" d="M-50.53-468.1a3.361,3.361,0,0,1-2.392-.991,3.361,3.361,0,0,1-.991-2.392V-491.07a3.725,3.725,0,0,1,.621-2.062l1.1-1.669a1.983,1.983,0,0,1,1.658-.891,1.983,1.983,0,0,1,1.658.891l1.1,1.669a3.725,3.725,0,0,1,.621,2.062v19.591a3.361,3.361,0,0,1-.991,2.392A3.361,3.361,0,0,1-50.53-468.1Zm0-26.377a.757.757,0,0,0-.641.345l-1.1,1.669a2.51,2.51,0,0,0-.418,1.389v19.591a2.167,2.167,0,0,0,2.164,2.164,2.167,2.167,0,0,0,2.164-2.164V-491.07a2.51,2.51,0,0,0-.418-1.389l-1.1-1.669A.757.757,0,0,0-50.53-494.472Z" transform="translate(83.518 500.169)" fill="#29abe2"/>
              <path id="Path_10230" data-name="Path 10230" d="M-50.53-72.68a3.361,3.361,0,0,1-2.392-.991,3.361,3.361,0,0,1-.991-2.392v-1.285a.609.609,0,0,1,.609-.609h5.547a.609.609,0,0,1,.609.609v1.285a3.361,3.361,0,0,1-.991,2.392A3.361,3.361,0,0,1-50.53-72.68Zm-2.164-4.058v.675A2.167,2.167,0,0,0-50.53-73.9a2.167,2.167,0,0,0,2.164-2.164v-.675Z" transform="translate(83.518 104.754)" fill="#29abe2"/>
              <path id="Path_10231" data-name="Path 10231" d="M-28.912-13.56a1.983,1.983,0,0,1,1.658.891L-26.15-11a3.737,3.737,0,0,1,.614,1.874.609.609,0,0,1-.167.45.609.609,0,0,1-.441.189H-31.68a.609.609,0,0,1-.442-.19.609.609,0,0,1-.167-.451A3.738,3.738,0,0,1-31.674-11l1.1-1.669A1.983,1.983,0,0,1-28.912-13.56Zm2.043,3.854a2.515,2.515,0,0,0-.3-.622L-28.271-12a.757.757,0,0,0-.641-.345.757.757,0,0,0-.641.345l-1.1,1.669a2.5,2.5,0,0,0-.3.622Z" transform="translate(61.9 18.038)" fill="#29abe2"/>
              <path id="Path_10232" data-name="Path 10232" d="M-1.391,8.061A.609.609,0,0,1-2,7.452V-1.391A.609.609,0,0,1-1.391-2a.609.609,0,0,1,.609.609V7.452A.609.609,0,0,1-1.391,8.061Z" transform="translate(34.378 16.618)" fill="#29abe2"/>
              <path id="Path_10233" data-name="Path 10233" transform="translate(32.988 12.378)" fill="#29abe2"/>
              <path id="Path_10234" data-name="Path 10234" d="M-194.646-90.4h-9.777a1.742,1.742,0,0,1-1.741-1.74v-2.8a1.743,1.743,0,0,1,1.741-1.741h9.777a1.742,1.742,0,0,1,1.74,1.741v2.8A1.742,1.742,0,0,1-194.646-90.4Zm-9.777-5.059a.522.522,0,0,0-.522.522v2.8a.522.522,0,0,0,.522.522h9.777a.522.522,0,0,0,.522-.522v-2.8a.522.522,0,0,0-.522-.522Z" transform="translate(216.368 101.159)" fill="#29abe2"/>
              <path id="Path_10235" data-name="Path 10235" d="M-1.391-66.116A.609.609,0,0,1-2-66.725v-2.1a2.2,2.2,0,0,1,2.2-2.2H9.346a2.2,2.2,0,0,1,2.2,2.2v1.336a.609.609,0,0,1-.609.609.609.609,0,0,1-.609-.609v-1.336a.983.983,0,0,0-.982-.982H.2a.983.983,0,0,0-.982.982v2.1A.609.609,0,0,1-1.391-66.116Z" transform="translate(12.06 84.535)" fill="#29abe2"/>
              <path id="Path_10236" data-name="Path 10236" d="M-1.391,3.194A.609.609,0,0,1-2,2.585V-1.391A.609.609,0,0,1-1.391-2a.609.609,0,0,1,.609.609V2.585A.609.609,0,0,1-1.391,3.194Z" transform="translate(18.224 11.537)" fill="#29abe2"/>
              <path id="Path_10237" data-name="Path 10237" d="M-110.457-73.264h-5.025A1.742,1.742,0,0,1-117.222-75v-1.829a1.743,1.743,0,0,1,1.741-1.741h5.025a1.743,1.743,0,0,1,1.741,1.741V-75A1.742,1.742,0,0,1-110.457-73.264Zm-5.025-4.091a.522.522,0,0,0-.522.522V-75a.522.522,0,0,0,.522.522h5.025a.522.522,0,0,0,.522-.522v-1.829a.522.522,0,0,0-.522-.522Z" transform="translate(126.159 95.774)" fill="#29abe2"/>
              <path id="Path_10238" data-name="Path 10238" d="M-94.356-49.759A3.165,3.165,0,0,1-91.195-46.6a3.165,3.165,0,0,1-3.161,3.161A3.165,3.165,0,0,1-97.517-46.6,3.165,3.165,0,0,1-94.356-49.759Zm0,5.1A1.944,1.944,0,0,0-92.414-46.6a1.944,1.944,0,0,0-1.942-1.942A1.944,1.944,0,0,0-96.3-46.6,1.944,1.944,0,0,0-94.356-44.655Z" transform="translate(117.353 66.412)" fill="#29abe2"/>
              <path id="Path_10239" data-name="Path 10239" d="M-1.391,4.032A.609.609,0,0,1-2,3.423V-1.391A.609.609,0,0,1-1.391-2a.609.609,0,0,1,.609.609V3.423A.609.609,0,0,1-1.391,4.032Z" transform="translate(12.025 23.291)" fill="#29abe2"/>
              <path id="Path_10240" data-name="Path 10240" d="M-1.391,4.032A.609.609,0,0,1-2,3.423V-1.391A.609.609,0,0,1-1.391-2a.609.609,0,0,1,.609.609V3.423A.609.609,0,0,1-1.391,4.032Z" transform="translate(17.206 23.291)" fill="#29abe2"/>
              <path id="Path_10241" data-name="Path 10241" d="M-58.194-31.181a2.171,2.171,0,0,1,2.169,2.169,2.171,2.171,0,0,1-2.169,2.169,2.171,2.171,0,0,1-2.169-2.169A2.171,2.171,0,0,1-58.194-31.181Zm0,3.118a.951.951,0,0,0,.95-.95.951.951,0,0,0-.95-.95.951.951,0,0,0-.95.95A.951.951,0,0,0-58.194-28.063Z" transform="translate(68.828 57.627)" fill="#29abe2"/>
              <path id="Path_10242" data-name="Path 10242" d="M-58.194-31.181a2.171,2.171,0,0,1,2.169,2.169,2.171,2.171,0,0,1-2.169,2.169,2.171,2.171,0,0,1-2.169-2.169A2.171,2.171,0,0,1-58.194-31.181Zm0,3.118a.951.951,0,0,0,.95-.95.951.951,0,0,0-.95-.95.951.951,0,0,0-.95.95A.951.951,0,0,0-58.194-28.063Z" transform="translate(74.01 57.627)" fill="#29abe2"/>
              <path id="Path_10243" data-name="Path 10243" d="M-58.194-31.181a2.171,2.171,0,0,1,2.169,2.169,2.171,2.171,0,0,1-2.169,2.169,2.171,2.171,0,0,1-2.168-2.169A2.171,2.171,0,0,1-58.194-31.181Zm0,3.118a.951.951,0,0,0,.95-.95.951.951,0,0,0-.95-.95.951.951,0,0,0-.95.95A.951.951,0,0,0-58.194-28.063Z" transform="translate(81.191 57.627)" fill="#29abe2"/>
              <path id="Path_10244" data-name="Path 10244" d="M-1.391,3.908A.609.609,0,0,1-2,3.3V-1.391A.609.609,0,0,1-1.391-2a.609.609,0,0,1,.609.609V3.3A.609.609,0,0,1-1.391,3.908Z" transform="translate(24.387 23.757)" fill="#29abe2"/>
              <path id="Path_10245" data-name="Path 10245" d="M-415.892-2H-395.9A2.888,2.888,0,0,1-393.015.885V30.528a2.888,2.888,0,0,1-2.885,2.885h-19.993a2.888,2.888,0,0,1-2.885-2.885V29.466a.609.609,0,0,1,.609-.609h1.143a1.083,1.083,0,0,0,1.082-1.082,1.083,1.083,0,0,0-1.082-1.082h-1.143a.609.609,0,0,1-.609-.609V23.432a.609.609,0,0,1,.609-.609h1.143a1.083,1.083,0,0,0,1.082-1.082,1.083,1.083,0,0,0-1.082-1.082h-1.143a.609.609,0,0,1-.609-.609V17.4a.609.609,0,0,1,.609-.609h1.143a1.083,1.083,0,0,0,1.082-1.082,1.083,1.083,0,0,0-1.082-1.082h-1.143a.609.609,0,0,1-.609-.609V11.364a.609.609,0,0,1,.609-.609h1.143a1.083,1.083,0,0,0,1.082-1.082,1.083,1.083,0,0,0-1.082-1.082h-1.143a.609.609,0,0,1-.609-.609V5.329a.609.609,0,0,1,.609-.609h1.143a1.083,1.083,0,0,0,1.082-1.082,1.083,1.083,0,0,0-1.082-1.082h-1.143a.609.609,0,0,1-.609-.609V.885A2.888,2.888,0,0,1-415.892-2ZM-395.9,32.194a1.668,1.668,0,0,0,1.666-1.666V.885A1.668,1.668,0,0,0-395.9-.781h-19.993A1.668,1.668,0,0,0-417.557.885v.452h.533a2.3,2.3,0,0,1,2.3,2.3,2.3,2.3,0,0,1-2.3,2.3h-.533V7.371h.533a2.3,2.3,0,0,1,2.3,2.3,2.3,2.3,0,0,1-2.3,2.3h-.533v1.432h.533a2.3,2.3,0,0,1,2.3,2.3,2.3,2.3,0,0,1-2.3,2.3h-.533V19.44h.533a2.3,2.3,0,0,1,2.3,2.3,2.3,2.3,0,0,1-2.3,2.3h-.533v1.433h.533a2.3,2.3,0,0,1,2.3,2.3,2.3,2.3,0,0,1-2.3,2.3h-.533v.452a1.668,1.668,0,0,0,1.666,1.666Z" transform="translate(421.531 2.531)" fill="#29abe2"/>
            </g>
          </g>
        </g>
        <g id="Group_5513" data-name="Group 5513" transform="translate(278.998 197.106)">
          <circle id="Ellipse_152" data-name="Ellipse 152" cx="24.285" cy="24.285" r="24.285" transform="translate(0 0)" fill="#fff"/>
          <g id="design_review" data-name="design review" transform="translate(9.036 6.777)">
            <path id="Path_10247" data-name="Path 10247" d="M34.816,13.769h-.779V7.105A3.109,3.109,0,0,0,30.931,4H14.524a3.109,3.109,0,0,0-3.105,3.105v6.664H10.64a3.109,3.109,0,0,0-3.105,3.105v6.372a3.109,3.109,0,0,0,3.105,3.105h.779v9.32a3.109,3.109,0,0,0,3.105,3.105H30.931a3.109,3.109,0,0,0,3.105-3.105v-9.32h.779a3.109,3.109,0,0,0,3.105-3.105V16.875a3.109,3.109,0,0,0-3.105-3.105ZM28.453,5.242l-.819,3.853a1.618,1.618,0,0,1-1.575,1.276H19.4a1.618,1.618,0,0,1-1.575-1.276L17,5.242ZM12.661,7.105a1.865,1.865,0,0,1,1.863-1.863h1.207l.874,4.111a2.867,2.867,0,0,0,2.79,2.26H26.06a2.867,2.867,0,0,0,2.79-2.26l.874-4.111h1.207a1.865,1.865,0,0,1,1.863,1.863v6.664H12.661ZM32.794,35.671a1.865,1.865,0,0,1-1.863,1.863H14.524a1.865,1.865,0,0,1-1.863-1.863v-9.32h5.283a1.69,1.69,0,0,1,1.433.8l2.457,4.028a.621.621,0,0,0,1.061,0l2.451-4.026a1.691,1.691,0,0,1,1.435-.805h6.014Zm3.884-12.425a1.865,1.865,0,0,1-1.863,1.863H26.78a2.94,2.94,0,0,0-2.495,1.4l-1.921,3.156-1.926-3.158a2.94,2.94,0,0,0-2.493-1.4h-7.3a1.865,1.865,0,0,1-1.863-1.863V16.875a1.865,1.865,0,0,1,1.863-1.863H34.816a1.865,1.865,0,0,1,1.863,1.863Z" transform="translate(-7.535 -4)" fill="#29abe2"/>
            <path id="Path_10248" data-name="Path 10248" d="M17.811,25.91h-1.58l-.487-1.5a.96.96,0,0,0-1.826,0l-.488,1.5H11.85a.96.96,0,0,0-.565,1.736l1.278.928-.488,1.5a.966.966,0,0,0,1.478,1.073l1.277-.928c.374.22,1.393,1.178,1.842,1.113a.967.967,0,0,0,.913-1.258l-.487-1.5,1.279-.928a.966.966,0,0,0-.565-1.737ZM16.2,27.691a.956.956,0,0,0-.35,1.073l.283.872-.741-.539c-.672-.515-1.341.161-1.87.539l.284-.873a.958.958,0,0,0-.35-1.071l-.741-.54h.917a.959.959,0,0,0,.913-.663l.283-.872.283.873a.959.959,0,0,0,.913.663h.917ZM26.979,25.91H25.4l-.488-1.5a.96.96,0,0,0-1.826,0l-.488,1.5H21.018a.96.96,0,0,0-.564,1.736l1.278.928-.489,1.5a.966.966,0,0,0,1.478,1.073L24,30.223c.374.22,1.393,1.178,1.842,1.113a.967.967,0,0,0,.913-1.258l-.488-1.5,1.278-.928a.966.966,0,0,0-.564-1.737ZM25.37,27.691a.956.956,0,0,0-.349,1.073l.283.872-.743-.539c-.673-.514-1.34.161-1.869.54l.283-.873a.956.956,0,0,0-.348-1.073l-.741-.54H22.8a.959.959,0,0,0,.913-.663L24,25.618l.283.872a.958.958,0,0,0,.913.663h.915ZM36.147,25.91h-1.58l-.488-1.5a.96.96,0,0,0-1.826,0l-.488,1.5h-1.58a.96.96,0,0,0-.564,1.736l1.277.928-.488,1.5a.966.966,0,0,0,1.478,1.074l1.277-.928,1.278.929a.966.966,0,0,0,1.478-1.074l-.489-1.5,1.279-.928a.966.966,0,0,0-.565-1.737Zm-1.608,1.781a.956.956,0,0,0-.35,1.073l.283.873c-.532-.38-1.2-1.054-1.87-.539l-.741.538.283-.871a.956.956,0,0,0-.348-1.073l-.742-.54h.917a.958.958,0,0,0,.913-.663l.283-.872.283.872a.959.959,0,0,0,.913.663h.917Z" transform="translate(-8.806 -11.483)" fill="#29abe2"/>
          </g>
        </g>
        <g id="Group_5514" data-name="Group 5514" transform="translate(237.77 255.278)">
          <circle id="Ellipse_153" data-name="Ellipse 153" cx="24.285" cy="24.285" r="24.285" transform="translate(0 0)" fill="#fff"/>
          <g id="UI" transform="translate(7.907 6.777)">
            <circle id="Ellipse_147" data-name="Ellipse 147" cx="0.515" cy="0.515" r="0.515" transform="translate(7.844 10.853)" fill="#29abe2"/>
            <path id="Path_10249" data-name="Path 10249" d="M140.864,159.379h-2.773a.514.514,0,1,1,0-1.028h2.773a.514.514,0,0,1,0,1.028Zm0,1.936h-5.178a.514.514,0,1,1,0-1.028h5.178a.514.514,0,1,1,0,1.028Z" transform="translate(-127.333 -147.497)" fill="#29abe2"/>
            <path id="Path_10250" data-name="Path 10250" d="M102.62,41.069H94.425a1.8,1.8,0,0,1-1.794-1.794V31.08a1.8,1.8,0,0,1,1.794-1.794.514.514,0,0,1,0,1.028.767.767,0,0,0-.766.766v8.194a.767.767,0,0,0,.766.766h8.194a.767.767,0,0,0,.766-.766V31.08a.767.767,0,0,0-.766-.766H96.959a.514.514,0,1,1,0-1.028h5.661a1.8,1.8,0,0,1,1.794,1.794v8.194A1.8,1.8,0,0,1,102.62,41.069ZM99.547,25.328H97.5a.514.514,0,1,1,0-1.028h2.049a.514.514,0,1,1,0,1.028Z" transform="translate(-87.708 -22.634)" fill="#29abe2"/>
            <ellipse id="Ellipse_148" data-name="Ellipse 148" cx="0.506" cy="0.506" rx="0.506" ry="0.506" transform="translate(17.876 2.18)" fill="#29abe2"/>
            <path id="Path_10251" data-name="Path 10251" d="M289.437,307.578a.514.514,0,0,1-.445-.256,2.468,2.468,0,0,1-.334-1.241v-.068a.514.514,0,0,1,1.028,0v.068a1.438,1.438,0,0,0,.194.723.514.514,0,0,1-.444.773Z" transform="translate(-270.298 -284.559)" fill="#29abe2"/>
            <path id="Path_10252" data-name="Path 10252" d="M52.581,27.668,48.908,24h.653a1.611,1.611,0,1,0,0-3.222h-.5v-.295a.514.514,0,0,0-1.028,0v.295H45.021a1.626,1.626,0,0,0-1.161.5,1.551,1.551,0,0,0-.452,1.12v.574H41.925a.514.514,0,0,0-.511.568.527.527,0,0,0,0,.053v8.709a1.775,1.775,0,0,1-1.773,1.773H23.611a1.775,1.775,0,0,1-1.773-1.773V2.8a1.775,1.775,0,0,1,1.773-1.773h2l.232,1.211A2.415,2.415,0,0,0,28.214,4.2h6.822A2.415,2.415,0,0,0,37.4,2.239l.232-1.211h2A1.775,1.775,0,0,1,41.411,2.8V13.313a.514.514,0,0,0,1.028,0V2.8a2.8,2.8,0,0,0-2.8-2.8H23.611a2.8,2.8,0,0,0-2.8,2.8V32.294a2.8,2.8,0,0,0,2.8,2.8H39.637a2.8,2.8,0,0,0,2.8-2.8v-8.3h.969v2.934a1.611,1.611,0,0,0,3.222,0v-.653L50.3,29.946l.006.005a1.668,1.668,0,0,0,1.149.462,1.588,1.588,0,0,0,1.117-.461l.006-.006a1.611,1.611,0,0,0,0-2.278ZM36.589,1.028l-.195,1.018A1.385,1.385,0,0,1,35.035,3.17H28.214a1.385,1.385,0,0,1-1.359-1.124L26.66,1.028ZM51.856,29.216a.608.608,0,0,1-.83,0l-4.547-4.547a.514.514,0,0,0-.878.364v1.894a.583.583,0,1,1-1.165,0V22.374a.525.525,0,0,1,.157-.384.621.621,0,0,1,.424-.188H49.56a.583.583,0,0,1,0,1.165H47.666a.514.514,0,0,0-.364.878L51.853,28.4a.582.582,0,0,1,0,.821Z" transform="translate(-20.81 0)" fill="#29abe2"/>
            <path id="Path_10253" data-name="Path 10253" d="M116.8,211.239a.514.514,0,0,1-.514-.514v-1.1a.514.514,0,1,1,1.028,0v1.1A.514.514,0,0,1,116.8,211.239Zm8.858-.976a.514.514,0,0,1-.514-.514v-1.1a.514.514,0,1,1,1.028,0v1.1A.514.514,0,0,1,125.661,210.263Zm-8.6-2.475a.514.514,0,0,1-.446-.769,2.472,2.472,0,0,1,.979-.953.514.514,0,0,1,.486.906,1.446,1.446,0,0,0-.572.557A.514.514,0,0,1,117.059,207.788Zm7.674-.695a.511.511,0,0,1-.27-.077,1.437,1.437,0,0,0-.757-.214h-.015a.514.514,0,0,1,0-1.028h.015a2.464,2.464,0,0,1,1.3.368.514.514,0,0,1-.271.951Zm-3.441-.291h-1.1a.514.514,0,1,1,0-1.028h1.1a.514.514,0,0,1,0,1.028Zm-7.924,16.5a.514.514,0,0,1-.514-.514V214.56a.514.514,0,0,1,1.028,0v8.226A.514.514,0,0,1,113.369,223.3Zm-6.439,0h-.005a3.283,3.283,0,0,1-1.792-.514,2.916,2.916,0,0,1-1.528-2.565v-5.66a.514.514,0,0,1,1.028,0v5.66a1.893,1.893,0,0,0,1.053,1.7,2.271,2.271,0,0,0,1.24.353,2.5,2.5,0,0,0,1.127-.256,1.957,1.957,0,0,0,1.267-1.8V214.56a.514.514,0,0,1,1.028,0v5.654a2.971,2.971,0,0,1-1.833,2.72A3.49,3.49,0,0,1,106.929,223.3Z" transform="translate(-97.929 -191.669)" fill="#29abe2"/>
          </g>
        </g>
        <g id="Group_5517" data-name="Group 5517" transform="translate(6.213 197.106)">
          <circle id="Ellipse_156" data-name="Ellipse 156" cx="24.285" cy="24.285" r="24.285" fill="#fff"/>
          <g id="DS_referance" data-name="DS referance" transform="translate(9.036 11.295)">
            <path id="Path_10254" data-name="Path 10254" d="M28.936,6H3.45A2.453,2.453,0,0,0,1,8.45V24.134a2.453,2.453,0,0,0,2.45,2.45h9.8v1.96h-1.47a1.47,1.47,0,1,0,0,2.941H20.6a1.47,1.47,0,0,0,0-2.941h-1.47v-1.96h6.041L27.2,28.612a1.874,1.874,0,0,0,2.909-2.331,2.441,2.441,0,0,0,1.274-2.147V8.45A2.453,2.453,0,0,0,28.936,6ZM3.45,6.98H28.936a1.47,1.47,0,0,1,1.38.98H2.07a1.47,1.47,0,0,1,1.38-.98ZM21.094,30.015a.49.49,0,0,1-.49.49H11.782a.49.49,0,0,1,0-.98H20.6A.49.49,0,0,1,21.094,30.015Zm-2.941-1.47H14.233v-1.96h3.921ZM3.45,25.6a1.47,1.47,0,0,1-1.47-1.47v-.49H16.727a5.832,5.832,0,0,0,6.4.893L24.195,25.6ZM20.6,14.332a4.9,4.9,0,1,1-4.9,4.9,4.9,4.9,0,0,1,4.9-4.9Zm7.925,13.85a.894.894,0,0,1-.634-.262L24,24.024a5.921,5.921,0,0,0,1.286-1.249l3.876,3.877a.9.9,0,0,1-.634,1.53Zm.89-2.66-3.593-3.593a5.848,5.848,0,0,0-1.344-7.106h.534v-.98H22.947a5.846,5.846,0,0,0-4.686,0h-5.5v.98h3.964a5.93,5.93,0,0,0-.89.98H12.762v.98h2.5a5.83,5.83,0,0,0,.572,5.881H1.98V8.941H30.406V22.663h-2.45v.98h2.45v.49a1.464,1.464,0,0,1-.987,1.387Z" transform="translate(-1 -6)" fill="#29abe2"/>
            <path id="Path_10255" data-name="Path 10255" d="M8.856,14.082,4.445,17.023l.544.816.708-.472v3.5a.49.49,0,0,0,.49.49h1.96a.49.49,0,0,0,.49-.49V18.9h.98v1.96a.49.49,0,0,0,.49.49h1.96a.49.49,0,0,0,.49-.49v-3.5l.708.472.544-.816L9.4,14.082A.49.49,0,0,0,8.856,14.082Zm2.723,6.289H10.6v-1.96a.49.49,0,0,0-.49-.49H8.148a.49.49,0,0,0-.49.49v1.96h-.98V16.713l2.45-1.634,2.45,1.633Zm19.6-3.921V14.49a.49.49,0,0,0-.49-.49H15.009a.49.49,0,0,0-.49.49v1.96a.49.49,0,0,0,.49.49H30.692A.49.49,0,0,0,31.182,16.45ZM15.5,14.98H28.242v.98H15.5Zm14.7.98h-.98v-.98h.98Zm-2.45,1.96v0Zm.49,1.96v0Zm-5.881,7.351a3.921,3.921,0,1,0-3.921-3.921,3.921,3.921,0,0,0,3.921,3.921Zm0-6.861a2.941,2.941,0,1,1-2.941,2.941,2.941,2.941,0,0,1,2.941-2.941Z" transform="translate(-2.757 -10.079)" fill="#29abe2"/>
          </g>
        </g>
        <g id="Group_5515" data-name="Group 5515" transform="translate(146.841 289.729)">
          <circle id="Ellipse_154" data-name="Ellipse 154" cx="24.285" cy="24.285" r="24.285" fill="#fff"/>
          <g id="animation" transform="translate(9.036 9.036)">
            <path id="Path_10256" data-name="Path 10256" d="M8.211,64.358H14.9v-.892H10.77l1.391-3.153h4.713V59.42H2.231A1.34,1.34,0,0,1,.892,58.081V40.231a1.34,1.34,0,0,1,1.339-1.339H9.943V38H2.231A2.234,2.234,0,0,0,0,40.231v17.85a2.234,2.234,0,0,0,2.231,2.231h8.954L9.794,63.466H7.318v2.677H11.83v-.893H8.211Z" transform="translate(0 -35.739)" fill="#29abe2"/>
            <path id="Path_10257" data-name="Path 10257" d="M48.048,90.047a1.339,1.339,0,1,0-1.339,1.339A1.34,1.34,0,0,0,48.048,90.047Zm-1.785,0a.446.446,0,1,1,.446.446A.447.447,0,0,1,46.263,90.047ZM33.5,86.863h.892v.892H33.5Zm23.443-8.211a2.826,2.826,0,1,0-2.826-2.826A2.829,2.829,0,0,0,56.943,78.652Zm0-4.76a1.934,1.934,0,1,1-1.934,1.934A1.936,1.936,0,0,1,56.943,73.892Z" transform="translate(-31.507 -68.657)" fill="#29abe2"/>
            <path id="Path_10258" data-name="Path 10258" d="M87.895,38H80.183v.892h7.712a1.34,1.34,0,0,1,1.339,1.339V53.946H63.5v.892H89.234v3.243a1.34,1.34,0,0,1-1.339,1.339H77.489v.892h.477l1.785,4.046h2.165v.893H72.444v.893H82.808V63.466H80.332l-1.391-3.153h8.954a2.234,2.234,0,0,0,2.231-2.231V40.231A2.234,2.234,0,0,0,87.895,38Z" transform="translate(-59.722 -35.739)" fill="#29abe2"/>
            <path id="Path_10259" data-name="Path 10259" d="M182.611,9.222A4.611,4.611,0,1,0,178,4.611,4.616,4.616,0,0,0,182.611,9.222Zm0-8.33a3.719,3.719,0,1,1-3.719,3.719A3.723,3.723,0,0,1,182.611.892Z" transform="translate(-167.409)" fill="#29abe2"/>
            <path id="Path_10260" data-name="Path 10260" d="M59.39,30.564v5.585l4.231-2.793Zm.892,1.658L62,33.357l-1.719,1.134Zm10.74,16.515H74v.892H71.022Zm-1.785,0h.893v.892h-.893ZM61.2,56.472H62.1v.892H61.2ZM50.723,42.438l-.61-.652q-.337.315-.653.652l.651.611Q50.407,42.733,50.723,42.438Zm.649-.566a6.947,6.947,0,0,1,4.245-1.762h.07A6.909,6.909,0,0,1,61,42.908a12.521,12.521,0,0,1,1.815,2.877l.114.275h.7l.087-.333a14.56,14.56,0,0,1,4.539-7.017L67.717,38a14.7,14.7,0,0,0-4.541,6.509A13.653,13.653,0,0,0,61.7,42.351a7.867,7.867,0,0,0-6.012-3.134h-.081a7.807,7.807,0,0,0-4.8,1.96ZM49.539,43.7l-.688-.568c-.362.438-.562.734-.571.747l.74.5S49.207,44.1,49.539,43.7Z" transform="translate(-45.407 -28.745)" fill="#29abe2"/>
          </g>
        </g>
        <g id="Group_5516" data-name="Group 5516" transform="translate(46.311 255.278)">
          <circle id="Ellipse_155" data-name="Ellipse 155" cx="24.285" cy="24.285" r="24.285" fill="#fff"/>
          <g id="graphic_interface" data-name="graphic interface" transform="translate(8.472 8.472)">
            <g id="Group_5509" data-name="Group 5509" transform="translate(0 0)" clip-path="url(#clip-path-3)">
              <path id="Path_10261" data-name="Path 10261" d="M5.134-62.745H.273A1.025,1.025,0,0,1-.75-63.769V-66.2A1.043,1.043,0,0,1,.292-67.246H5.115A1.043,1.043,0,0,1,6.157-66.2v2.435A1.025,1.025,0,0,1,5.134-62.745ZM.292-66.418a.215.215,0,0,0-.214.214v2.435a.2.2,0,0,0,.2.2h4.86a.2.2,0,0,0,.2-.2V-66.2a.215.215,0,0,0-.214-.214Z" transform="translate(11.592 80.294)" fill="#29abe2"/>
              <path id="Path_10262" data-name="Path 10262" d="M-145.42-228.38h-4.633a.414.414,0,0,1-.315-.145l-2.373-2.78a.414.414,0,0,1-.045-.473l4.69-8.252a.414.414,0,0,1,.36-.209.414.414,0,0,1,.36.209l4.69,8.252a.414.414,0,0,1-.045.473l-2.373,2.78A.414.414,0,0,1-145.42-228.38Zm-4.442-.828h4.251l2.061-2.415-4.187-7.367-4.186,7.367Z" transform="translate(162.033 242.256)" fill="#29abe2"/>
              <path id="Path_10263" data-name="Path 10263" d="M-.336,6.338A.414.414,0,0,1-.75,5.924V-.336A.414.414,0,0,1-.336-.75a.414.414,0,0,1,.414.414v6.26A.414.414,0,0,1-.336,6.338Z" transform="translate(14.632 2.941)" fill="#29abe2"/>
              <path id="Path_10264" data-name="Path 10264" d="M-44.309-23.27a1.452,1.452,0,0,1,1.45,1.451,1.452,1.452,0,0,1-1.45,1.451,1.452,1.452,0,0,1-1.451-1.451A1.452,1.452,0,0,1-44.309-23.27Zm0,2.075a.624.624,0,0,0,.623-.624.624.624,0,0,0-.623-.624.624.624,0,0,0-.623.624A.624.624,0,0,0-44.309-21.2Z" transform="translate(58.605 31.721)" fill="#29abe2"/>
              <path id="Path_10265" data-name="Path 10265" d="M7.422.078H-.336A.414.414,0,0,1-.75-.336.414.414,0,0,1-.336-.75H7.422a.414.414,0,0,1,.414.414A.414.414,0,0,1,7.422.078Z" transform="translate(15.659 1.823)" fill="#29abe2"/>
              <path id="Path_10266" data-name="Path 10266" d="M7.422.078H-.336A.414.414,0,0,1-.75-.336.414.414,0,0,1-.336-.75H7.422a.414.414,0,0,1,.414.414A.414.414,0,0,1,7.422.078Z" transform="translate(5.847 1.823)" fill="#29abe2"/>
              <path id="Path_10267" data-name="Path 10267" d="M290.954-669.361H289.02a.414.414,0,0,1-.414-.414v-1.933a.414.414,0,0,1,.414-.414h1.933a.414.414,0,0,1,.414.414v1.933A.414.414,0,0,1,290.954-669.361Zm-1.52-.828h1.106v-1.105h-1.106Z" transform="translate(-275.691 672.228)" fill="#29abe2"/>
              <path id="Path_10268" data-name="Path 10268" d="M-43.866-23.019a1.441,1.441,0,0,1,1.44,1.44,1.441,1.441,0,0,1-1.44,1.44,1.441,1.441,0,0,1-1.44-1.44A1.441,1.441,0,0,1-43.866-23.019Zm0,2.052a.613.613,0,0,0,.612-.612.613.613,0,0,0-.612-.612.613.613,0,0,0-.612.612A.613.613,0,0,0-43.866-20.968Z" transform="translate(48.35 23.066)" fill="#29abe2"/>
              <path id="Path_10269" data-name="Path 10269" d="M-43.865-23.019a1.441,1.441,0,0,1,1.44,1.44,1.441,1.441,0,0,1-1.44,1.44,1.441,1.441,0,0,1-1.44-1.44A1.441,1.441,0,0,1-43.865-23.019Zm0,2.052a.613.613,0,0,0,.612-.612.613.613,0,0,0-.612-.612.613.613,0,0,0-.612.612A.613.613,0,0,0-43.865-20.968Z" transform="translate(67.972 23.066)" fill="#29abe2"/>
              <path id="Path_10270" data-name="Path 10270" d="M-297.357-344.354H-310.25a1.865,1.865,0,0,1-1.865-1.862v-13.737a1.865,1.865,0,0,1,1.865-1.862h11.183a.414.414,0,0,1,.414.414.414.414,0,0,1-.414.414H-310.25a1.037,1.037,0,0,0-1.037,1.034v13.737a1.037,1.037,0,0,0,1.037,1.034h12.892a.414.414,0,0,1,.414.414A.414.414,0,0,1-297.357-344.354Z" transform="translate(312.153 365.699)" fill="#29abe2"/>
              <path id="Path_10271" data-name="Path 10271" d="M12.357,13.358a.414.414,0,0,1-.414-.414V1.112A1.037,1.037,0,0,0,10.906.078H-.336A.414.414,0,0,1-.75-.336.414.414,0,0,1-.336-.75H10.906A1.865,1.865,0,0,1,12.77,1.112V12.944A.414.414,0,0,1,12.357,13.358Z" transform="translate(15.783 4.634)" fill="#29abe2"/>
              <path id="Path_10272" data-name="Path 10272" d="M27.351.078H-.336A.414.414,0,0,1-.75-.336.414.414,0,0,1-.336-.75H27.351a.414.414,0,0,1,.414.414A.414.414,0,0,1,27.351.078Z" transform="translate(0.789 17.464)" fill="#29abe2"/>
              <path id="Path_10273" data-name="Path 10273" d="M-122.89-35h-5.918a.414.414,0,0,1-.414-.414,2.11,2.11,0,0,1,2.107-2.107h4.224a.414.414,0,0,1,.414.414.414.414,0,0,1-.414.414h-4.224a1.282,1.282,0,0,0-1.211.866h5.436a.414.414,0,0,1,.414.414A.414.414,0,0,1-122.89-35Z" transform="translate(137.686 61.849)" fill="#29abe2"/>
              <path id="Path_10274" data-name="Path 10274" d="M-.336-78.942l-.043,0A.414.414,0,0,1-.748-79.4l.4-3.816a.414.414,0,0,1,.412-.371H2.891a.414.414,0,0,1,.414.414.414.414,0,0,1-.414.414H.434L.075-79.313A.414.414,0,0,1-.336-78.942Z" transform="translate(11.913 104.103)" fill="#29abe2"/>
              <path id="Path_10275" data-name="Path 10275" d="M-243.405,12.017h-14.881a1.066,1.066,0,0,1-1.065-1.065V.315A1.066,1.066,0,0,1-258.286-.75h11.262a.414.414,0,0,1,.414.414.414.414,0,0,1-.414.414h-11.262a.238.238,0,0,0-.237.237V10.952a.238.238,0,0,0,.237.237h14.881a.238.238,0,0,0,.237-.237V.315a.238.238,0,0,0-.237-.237h-1.354a.414.414,0,0,1-.414-.414.414.414,0,0,1,.414-.414h1.354A1.066,1.066,0,0,1-242.34.315V10.952A1.066,1.066,0,0,1-243.405,12.017Z" transform="translate(273.733 19.383)" fill="#29abe2"/>
              <path id="Path_10276" data-name="Path 10276" d="M-.336,12.017A.414.414,0,0,1-.75,11.6V-.336A.414.414,0,0,1-.336-.75a.414.414,0,0,1,.414.414V11.6A.414.414,0,0,1-.336,12.017Z" transform="translate(18.532 19.383)" fill="#29abe2"/>
              <path id="Path_10277" data-name="Path 10277" d="M-.336,1.277A.414.414,0,0,1-.75.863v-1.2A.414.414,0,0,1-.336-.75a.414.414,0,0,1,.414.414v1.2A.414.414,0,0,1-.336,1.277Z" transform="translate(16.794 28.107)" fill="#29abe2"/>
              <path id="Path_10278" data-name="Path 10278" d="M-9.215-19.079a.461.461,0,0,0,0-.921.461.461,0,0,0,0,.921" transform="translate(25.672 45.489)" fill="#29abe2"/>
              <path id="Path_10279" data-name="Path 10279" d="M-9.215-19.079a.461.461,0,0,0,0-.921.461.461,0,0,0,0,.921" transform="translate(25.672 43.624)" fill="#29abe2"/>
              <path id="Path_10280" data-name="Path 10280" d="M-.336-24.751a.414.414,0,0,1-.414-.414v-1.2a.414.414,0,0,1,.414-.414.414.414,0,0,1,.414.414v1.2A.414.414,0,0,1-.336-24.751Z" transform="translate(16.794 47.429)" fill="#29abe2"/>
              <path id="Path_10281" data-name="Path 10281" d="M-151.579-27.3a.712.712,0,0,1,.508.211l.7.706a.712.712,0,0,1,.209.507.712.712,0,0,1-.211.506l-6.128,6.13a.414.414,0,0,1-.293.121.414.414,0,0,1-.293-.122l-1.131-1.135a.414.414,0,0,1,0-.585l6.128-6.131A.713.713,0,0,1-151.579-27.3Zm.547,1.422-.547-.548-5.757,5.76.547.548Z" transform="translate(181.306 43.037)" fill="#29abe2"/>
              <path id="Path_10282" data-name="Path 10282" d="M-28.922-10.349a.414.414,0,0,1-.293-.122l-.148-.148a.414.414,0,0,1-.121-.3,3.521,3.521,0,0,1,.864-2.01.414.414,0,0,1,.3-.137.414.414,0,0,1,.3.122l1.131,1.135a.414.414,0,0,1,.121.3.414.414,0,0,1-.138.3,3.519,3.519,0,0,1-2.013.857Zm.657-1.668a2.613,2.613,0,0,0-.353.8,2.61,2.61,0,0,0,.8-.35Z" transform="translate(51.696 35.022)" fill="#29abe2"/>
              <path id="Path_10283" data-name="Path 10283" d="M-.336-13.756a.412.412,0,0,1-.293-.121.414.414,0,0,1,0-.585L.04-15.13a.414.414,0,0,1,.585,0,.414.414,0,0,1,0,.585l-.668.668A.413.413,0,0,1-.336-13.756Z" transform="translate(30.631 30.765)" fill="#29abe2"/>
            </g>
          </g>
        </g>
        <g id="Group_5518" data-name="Group 5518" transform="translate(0 112.39)">
          <circle id="Ellipse_157" data-name="Ellipse 157" cx="24.285" cy="24.285" r="24.285" fill="#fff"/>
          <g id="analyses" transform="translate(10.166 7.342)">
            <path id="Path_10285" data-name="Path 10285" d="M80.174,9.552V39.44H77.609m-1.026,0H54.526v-26.3m0-1.026V9.552M53.5,7.5H81.2V9.552H53.5ZM68.376,39.44v1.026a1.026,1.026,0,0,1-2.052,0V39.44M57.86,13.655H76.839V16.22H57.86ZM77.609,11.6h1.026m-3.078,0h1.026" transform="translate(-53.5 -7.5)" fill="none" stroke="#29abe2" stroke-miterlimit="22.926" stroke-width="2.5" fill-rule="evenodd"/>
            <ellipse id="Ellipse_149" data-name="Ellipse 149" cx="4.617" cy="4.617" rx="4.617" ry="4.617" transform="translate(14.106 11.285)" fill="none" stroke="#29abe2" stroke-miterlimit="22.926" stroke-width="2.5"/>
            <path id="Path_10286" data-name="Path 10286" d="M121.36,192.268l3.264,3.264h4.617m-4.617,4.617v-4.617m-1.539,13.474H109.749m1.539,0v-3.591h2.052v3.591m6.155,0v-6.668h2.052v6.668m-6.155,0v-5.13h2.052v5.13M111.8,193.481h6.155m-8.207,4.1h1.026m-1.026-2.052h1.026m-1.026-2.052h1.026m1.026,4.1h6.155m-6.155-2.052h6.155m9.233,8.088h2.565m-4.617,4.1h1.026m-1.026-2.052h1.026m-1.026-2.052h1.026m1.026,4.1h2.565m-2.565-2.052h2.565" transform="translate(-105.902 -179.631)" fill="none" stroke="#29abe2" stroke-miterlimit="22.926" stroke-width="2.5" fill-rule="evenodd"/>
          </g>
        </g>
        <g id="Group_5519" data-name="Group 5519" transform="translate(48.571 31.063)">
          <circle id="Ellipse_158" data-name="Ellipse 158" cx="24.285" cy="24.285" r="24.285" transform="translate(0)" fill="#fff"/>
          <g id="interface_arcticutre" data-name="interface arcticutre" transform="translate(10.166 10.166)">
            <path id="Path_10287" data-name="Path 10287" d="M26.535,28.7H3.164A2.143,2.143,0,0,1,1,26.535V3.164A2.143,2.143,0,0,1,3.164,1H26.535A2.143,2.143,0,0,1,28.7,3.164V26.535A2.143,2.143,0,0,1,26.535,28.7ZM3.164,1.866a1.275,1.275,0,0,0-1.3,1.3V26.535a1.275,1.275,0,0,0,1.3,1.3H26.535a1.275,1.275,0,0,0,1.3-1.3V3.164a1.275,1.275,0,0,0-1.3-1.3Z" transform="translate(-1 -1)" fill="#29abe2"/>
            <path id="Path_10288" data-name="Path 10288" d="M28.267,8.985H1.433a.433.433,0,1,1,0-.866H28.267a.433.433,0,0,1,0,.866ZM4.549,7.383A1.342,1.342,0,1,1,5.891,6.042,1.348,1.348,0,0,1,4.549,7.383Zm0-1.818a.476.476,0,1,0,.476.476A.48.48,0,0,0,4.549,5.566ZM8.271,7.383A1.342,1.342,0,1,1,9.613,6.042,1.348,1.348,0,0,1,8.271,7.383Zm0-1.818a.476.476,0,1,0,.476.476A.48.48,0,0,0,8.271,5.566Zm18.048,11.3H3.424a.409.409,0,0,1-.433-.433V10.8a.409.409,0,0,1,.433-.433h22.9a.409.409,0,0,1,.433.433v5.626A.409.409,0,0,1,26.319,16.862ZM3.857,16h22.03V11.235H3.857Z" transform="translate(-1 -3.099)" fill="#29abe2"/>
            <path id="Path_10289" data-name="Path 10289" d="M28.912,24.319h-.087L5.973,18.692a.425.425,0,0,1,.216-.822L29.042,23.5a.411.411,0,0,1,.3.519A.43.43,0,0,1,28.912,24.319Z" transform="translate(-3.636 -10.556)" fill="#29abe2"/>
            <path id="Path_10290" data-name="Path 10290" d="M6.022,24.281a.456.456,0,0,1-.433-.346.445.445,0,0,1,.3-.519l22.852-5.626a.425.425,0,0,1,.216.822L6.108,24.238C6.108,24.281,6.065,24.281,6.022,24.281Zm6.319,6.968H6.022a.409.409,0,0,1-.433-.433V26.186a.409.409,0,0,1,.433-.433h6.319a.409.409,0,0,1,.433.433v4.631A.409.409,0,0,1,12.341,31.249Zm-5.886-.866h5.453V26.618H6.455Z" transform="translate(-3.598 -10.518)" fill="#29abe2"/>
            <path id="Path_10291" data-name="Path 10291" d="M12.323,41.711a.615.615,0,0,1-.26-.087L5.788,36.994a.433.433,0,0,1,.519-.692l6.276,4.631a.465.465,0,0,1,.087.606.394.394,0,0,1-.346.173Z" transform="translate(-3.624 -20.98)" fill="#29abe2"/>
            <path id="Path_10292" data-name="Path 10292" d="M6.047,41.7a.394.394,0,0,1-.346-.173.458.458,0,0,1,.087-.606l6.276-4.631a.433.433,0,0,1,.519.692L6.307,41.61A.615.615,0,0,1,6.047,41.7Zm14.586,0H14.314a.409.409,0,0,1-.433-.433V36.633a.409.409,0,0,1,.433-.433h6.319a.409.409,0,0,1,.433.433v4.631a.409.409,0,0,1-.433.433Zm-5.886-.866H20.2V37.066H14.747Z" transform="translate(-3.624 -20.965)" fill="#29abe2"/>
            <path id="Path_10293" data-name="Path 10293" d="M31.466,41.711a.615.615,0,0,1-.26-.087l-6.319-4.631a.433.433,0,0,1,.519-.692l6.319,4.631a.465.465,0,0,1,.087.606A.394.394,0,0,1,31.466,41.711Z" transform="translate(-14.457 -20.98)" fill="#29abe2"/>
            <path id="Path_10294" data-name="Path 10294" d="M25.147,41.7a.394.394,0,0,1-.346-.173.465.465,0,0,1,.087-.606l6.319-4.631a.433.433,0,1,1,.519.692L25.407,41.61A.615.615,0,0,1,25.147,41.7Zm14.629,0H33.457a.409.409,0,0,1-.433-.433V36.633a.409.409,0,0,1,.433-.433h6.319a.409.409,0,0,1,.433.433v4.631A.409.409,0,0,1,39.776,41.7Zm-5.886-.866h5.453V37.066H33.89Z" transform="translate(-14.457 -20.965)" fill="#29abe2"/>
            <path id="Path_10295" data-name="Path 10295" d="M50.623,41.711a.615.615,0,0,1-.26-.087l-6.276-4.631a.433.433,0,0,1,.519-.692l6.276,4.631a.465.465,0,0,1,.087.606A.394.394,0,0,1,50.623,41.711Z" transform="translate(-25.347 -20.98)" fill="#29abe2"/>
            <path id="Path_10296" data-name="Path 10296" d="M22.609,41.711a.394.394,0,0,1-.346-.173.465.465,0,0,1,.087-.606L28.625,36.3a.433.433,0,0,1,.519.692l-6.276,4.631A.615.615,0,0,1,22.609,41.711Zm-10.3,2.467H6.033a.433.433,0,1,1,0-.866h6.276a.433.433,0,0,1,0,.866Zm8.31,0H14.3a.433.433,0,1,1,0-.866h6.319a.433.433,0,1,1,0,.866Zm8.267,0H22.609a.433.433,0,1,1,0-.866h6.276a.433.433,0,1,1,0,.866Zm-1.342,2.467H23.951a.433.433,0,0,1,0-.866h3.592a.433.433,0,1,1,0,.866Zm-8.31,0H15.684a.433.433,0,1,1,0-.866h3.549a.433.433,0,1,1,0,.866Zm-8.267,0H7.374a.433.433,0,1,1,0-.866h3.592a.433.433,0,1,1,0,.866Z" transform="translate(-3.609 -20.98)" fill="#29abe2"/>
          </g>
        </g>
      </g>
    </g>
  </g>
</svg>
